<svg viewBox="0 0 909 1286" version="1.1" xmlns="http://www.w3.org/2000/svg">
<defs>
<style>
.g0{fill:none;stroke:#000;stroke-width:1.466;stroke-miterlimit:1000;}
.g1{fill:none;stroke:#000;stroke-width:0.733;stroke-miterlimit:1000;}
.g2{fill:none;stroke:#000;stroke-width:0.733;stroke-miterlimit:10;}
.g3{fill:none;stroke:#000;stroke-width:1.466;stroke-miterlimit:10;}
.g4{fill:#CCC;}
.g5{fill:none;stroke:#000;stroke-width:0.733;stroke-linejoin:round;}
</style>
</defs>
<path d="M55.5 125.2c1.2-1.2 2.7-1.8 4.4-1.8H849.5c1.7 0 3.2 .6 4.4 1.8c1.2 1.2 1.8 2.7 1.8 4.4v90.1c0 1.7-.6 3.1-1.8 4.3c-1.2 1.2-2.7 1.8-4.4 1.8H59.9c-1.7 0-3.2-.6-4.4-1.8c-1.2-1.2-1.8-2.6-1.8-4.3V129.6c0-1.7 .6-3.2 1.8-4.4ZM43.8 67.1H865.2V1199H43.8V67.1Z" class="g0"/>
<path d="M749.6 152.5h73.2v21.3H749.6V152.5Zm-82.5 0h73.2v21.3H667.1V152.5Z" class="g1"/>
<path d="M740 164.1h9.1" class="g2"/>
<path d="M639.6 152.5h18.2v21.3H639.6V152.5Z" class="g1"/>
<path d="M656.9 164.1h9.7" class="g2"/>
<path d="M832.1 152.2h18.4v21.5H832.1V152.2Z" class="g1"/>
<path d="M822.8 163.6H832" class="g2"/>
<path d="M599.7 127.8h73.4v21.3H599.7V127.8Zm-27.5 0h18.2v21.3H572.2V127.8Z" class="g1"/>
<path d="M775 138.8h9.1m-193.9-.1h9.1m75-.2h9.2" class="g2"/>
<path d="M683.1 127.2h92.3V149H683.1V127.2Z" class="g1"/>
<path d="M821.7 138.5h9.2" class="g2"/>
<path d="M783.9 127.6h37.4v20.7H783.9V127.6Zm48 1.3h18.4v18.4H831.9V128.9Z" class="g1"/>
<path d="M56.4 230.2c1.2-1.2 2.6-1.8 4.3-1.8H850.4c1.7 0 3.1 .6 4.3 1.8c1.2 1.2 1.8 2.7 1.8 4.4V398.1c0 1.7-.6 3.2-1.8 4.4c-1.2 1.2-2.6 1.8-4.3 1.8H60.7c-1.7 0-3.1-.6-4.3-1.8c-1.2-1.2-1.8-2.7-1.8-4.4V234.6c0-1.7 .6-3.2 1.8-4.4Zm61.5 116.1h92v21.2h-92V346.3ZM56.4 408.5c1.2-1.2 2.6-1.8 4.3-1.8H850.4c1.7 0 3.1 .6 4.3 1.8c1.2 1.2 1.8 2.6 1.8 4.3v627.3c0 1.7-.6 3.2-1.8 4.4c-1.2 1.2-2.6 1.8-4.3 1.8H60.7c-1.7 0-3.1-.6-4.3-1.8c-1.2-1.2-1.8-2.7-1.8-4.4V412.8c0-1.7 .6-3.1 1.8-4.3Z" class="g0"/>
<path d="M53.9 450.1H856M500 405.6V984.2M618.6 405.6v612m129.8-612v612" class="g3"/>
<path d="M834.7 450.3v567.3m-109-567.3v567.3" class="g2"/>
<path d="M53.9 986.4H857.3m-239.6 29.3H857.3" class="g3"/>
<path d="M618.6 1013.3H855.5" class="g2"/>
<path d="M320.1 349h17.6v17.5H320.1V349Zm119.1 0h17.5v17.5H439.2V349Zm164.6 0h17.6v17.5H603.8V349Zm117.8 0h17.6v17.5H721.6V349ZM320.1 377.2h17.6v17.5H320.1V377.2Zm119.1 0h17.5v17.5H439.2V377.2Zm164.6 0h17.6v17.5H603.8V377.2Z" class="g1"/>
<path d="M278.7 1043.5h572v-25.3h-572v25.3Z" class="g4"/>
<path d="M750.4 261.8h73.2v21.3H750.4V261.8Zm-82.5 0h73.2v21.3H667.9V261.8Z" class="g1"/>
<path d="M740.9 273.4H750" class="g2"/>
<path d="M640.4 261.8h18.2v21.3H640.4V261.8Z" class="g1"/>
<path d="M657.8 273.4h9.7" class="g2"/>
<path d="M832.9 261.5h18.4V283H832.9V261.5Z" class="g1"/>
<path d="M823.6 272.9h9.1" class="g2"/>
<path d="M600.6 232.7h73.3v21.4H600.6V232.7Zm-27.5 0h18.2v21.4H573.1V232.7Z" class="g1"/>
<path d="M775.9 243.7h9.2m-194-.2h9.2m74.8-.2h9.1" class="g2"/>
<path d="M683.9 232.2h92.4V254H683.9V232.2Z" class="g1"/>
<path d="M822.5 243.3h9.1" class="g2"/>
<path d="M784.7 232.6h37.4v20.6H784.7V232.6Zm48.1 0h18.3v20.8H832.8V232.6ZM126.6 1085.9h17.6v17.6H126.6v-17.6Zm142 0h17.6v17.6H268.6v-17.6Zm164.6 0h17.5v17.6H433.2v-17.6Zm168.9 0h17.5v17.6H602.1v-17.6Z" class="g1"/>
<path d="M56.4 1082.8c1.2-1.2 2.6-1.8 4.3-1.8H850.4c1.7 0 3.1 .6 4.3 1.8c1.2 1.2 1.8 2.7 1.8 4.4v14.4c0 1.7-.6 3.1-1.8 4.3c-1.2 1.2-2.6 1.8-4.3 1.8H60.7c-1.7 0-3.1-.6-4.3-1.8c-1.2-1.2-1.8-2.6-1.8-4.3v-14.4c0-1.7 .6-3.2 1.8-4.4Zm0-31.8c1.2-1.2 2.6-1.8 4.3-1.8H850.4c1.7 0 3.1 .6 4.3 1.8c1.2 1.2 1.8 2.7 1.8 4.4v15.8c0 1.7-.6 3.1-1.8 4.3c-1.2 1.2-2.6 1.8-4.3 1.8H60.7c-1.7 0-3.1-.6-4.3-1.8c-1.2-1.2-1.8-2.6-1.8-4.3v-15.8c0-1.7 .6-3.2 1.8-4.4Zm336.5 61.8c1.2-1.2 2.6-1.8 4.3-1.8H849c1.7 0 3.1 .6 4.3 1.8c1.2 1.2 1.8 2.7 1.8 4.4v72.3c0 1.7-.6 3.2-1.8 4.4c-1.2 1.2-2.6 1.8-4.3 1.8H397.2c-1.7 0-3.1-.6-4.3-1.8c-1.2-1.2-1.8-2.7-1.8-4.4v-72.3c0-1.7 .6-3.2 1.8-4.4Zm-336.5 .1c1.2-1.2 2.6-1.8 4.3-1.8h318c1.7 0 3.1 .6 4.3 1.8c1.2 1.2 1.8 2.7 1.8 4.4v72.2c0 1.7-.6 3.2-1.8 4.4c-1.2 1.2-2.6 1.8-4.3 1.8H60.7c-1.7 0-3.1-.6-4.3-1.8c-1.2-1.2-1.8-2.7-1.8-4.4v-72.2c0-1.7 .6-3.2 1.8-4.4Z" class="g0"/>
<path d="M779.2 1166.3c0-7.4 2.6-13.6 7.8-18.8c5.2-5.2 11.4-7.8 18.8-7.8c7.3 0 13.5 2.6 18.7 7.8c5.2 5.2 7.8 11.4 7.8 18.8c0 7.3-2.6 13.6-7.8 18.7c-5.2 5.2-11.4 7.8-18.7 7.8c-7.4 0-13.6-2.6-18.8-7.8c-5.2-5.1-7.8-11.4-7.8-18.7Z" class="g5"/>
</svg>